<svg width="48" height="41" viewBox="0 0 48 41" fill="none" xmlns="http://www.w3.org/2000/svg">
<path d="M42.2544 8.52529H37.1848V3.45567C37.1848 2.55931 36.8287 1.69966 36.1949 1.06583C35.561 0.432007 34.7014 0.0759277 33.805 0.0759277H13.5265C12.6302 0.0759277 11.7705 0.432007 11.1367 1.06583C10.5029 1.69966 10.1468 2.55931 10.1468 3.45567V8.52529H5.07717C3.73262 8.52529 2.44314 9.05941 1.4924 10.0102C0.541665 10.9609 0.00754547 12.2504 0.00754547 13.5949V37.2531C0.00754547 38.1495 0.363625 39.0092 0.99745 39.643C1.63128 40.2768 2.49093 40.6329 3.38729 40.6329H43.9443C44.8406 40.6329 45.7003 40.2768 46.3341 39.643C46.9679 39.0092 47.324 38.1495 47.324 37.2531V13.5949C47.324 12.2504 46.7899 10.9609 45.8391 10.0102C44.8884 9.05941 43.5989 8.52529 42.2544 8.52529ZM13.5265 3.45567H33.805V8.52529H13.5265V3.45567ZM43.9443 37.2531H3.38729V22.0443H16.9063V30.4936H30.4253V22.0443H43.9443V37.2531ZM20.286 22.0443H27.0455V27.1139H20.286V22.0443ZM3.38729 18.6645V13.5949C3.38729 13.1467 3.56533 12.7169 3.88224 12.4C4.19916 12.0831 4.62898 11.905 5.07717 11.905H42.2544C42.7026 11.905 43.1324 12.0831 43.4493 12.4C43.7662 12.7169 43.9443 13.1467 43.9443 13.5949V18.6645H3.38729Z" fill="#0D5C63"/>
</svg>
