<svg width="49" height="27" viewBox="0 0 49 27" fill="none" xmlns="http://www.w3.org/2000/svg">
<path d="M43.816 12.2821C43.2405 12.2863 42.6704 12.3961 42.1332 12.6063L36.3929 7.82161C36.5341 7.29999 36.6346 6.75888 36.6346 6.18852C36.6346 2.81022 33.968 0.0949097 30.6502 0.0949097C27.3324 0.0949097 24.6657 2.81022 24.6657 6.18852C24.6657 7.15375 24.9051 8.05316 25.2929 8.8624L18.3294 17.2423C18.0507 17.1892 17.7679 17.1607 17.4844 17.157C17.0559 17.157 16.6513 17.2301 16.2588 17.3374L10.1235 11.0902C10.2312 10.6929 10.303 10.281 10.303 9.84468C10.303 7.144 8.16778 4.9698 5.51547 4.9698C2.86316 4.9698 0.727905 7.144 0.727905 9.84468C0.727905 12.5454 2.86316 14.7196 5.51547 14.7196C5.94396 14.7196 6.34851 14.6464 6.74109 14.5392L12.8764 20.7864C12.7613 21.1913 12.7009 21.6104 12.6968 22.0319C12.6968 24.7326 14.8321 26.9068 17.4844 26.9068C20.1367 26.9068 22.2719 24.7326 22.2719 22.0319C22.2719 21.4542 22.157 20.9107 21.9775 20.3964L28.9506 12.0067C29.494 12.1676 30.0565 12.2821 30.6502 12.2821C31.5949 12.2768 32.5247 12.042 33.3623 11.5972L39.105 16.3819C39.06 16.6379 39.0344 16.897 39.0284 17.157C39.0284 19.8577 41.1637 22.0319 43.816 22.0319C46.4683 22.0319 48.6036 19.8577 48.6036 17.157C48.6036 14.4563 46.4683 12.2821 43.816 12.2821Z" fill="#0D5C63"/>
</svg>
