<svg width="49" height="48" viewBox="0 0 49 48" fill="none" xmlns="http://www.w3.org/2000/svg">
<path d="M46.8658 9.48885V1.89659C46.8658 0.847537 46.0078 0 44.9458 0H4.38581C3.32381 0 2.46581 0.847537 2.46581 1.89659V9.48885C1.46381 9.54812 0.665809 10.372 0.665809 11.3795V19.1851C0.661966 20.6197 0.956025 22.0398 1.52981 23.3576C1.78781 23.9622 2.10581 24.5311 2.46581 25.0705V45.518C2.46581 46.5612 3.32381 47.4146 4.38581 47.4146H44.9458C46.0078 47.4146 46.8658 46.5671 46.8658 45.518V25.0705C47.2314 24.5298 47.5448 23.9563 47.8018 23.3576C48.3718 22.036 48.6658 20.6313 48.6658 19.1851V11.3795C48.6658 10.372 47.8678 9.54812 46.8658 9.48885ZM6.7858 4.26732H42.5458V9.48293H6.7858V4.26732ZM28.5058 43.1532H20.8258V36.9834H28.5058V43.1532ZM42.5698 43.1532H32.3458V35.0868C32.3458 34.0378 31.4878 33.1902 30.4258 33.1902H18.9058C17.8438 33.1902 16.9858 34.0378 16.9858 35.0868V43.1532H6.7858V28.7985C6.9598 28.8814 7.1398 28.9644 7.3258 29.0355C8.6638 29.5927 10.0858 29.8712 11.5498 29.8712C13.0138 29.8712 14.4298 29.5927 15.7738 29.0355C16.6018 28.6918 17.3818 28.2532 18.0958 27.7257C18.1078 27.7198 18.1198 27.7198 18.1318 27.7257C18.848 28.2554 19.628 28.6954 20.4538 29.0355C21.7918 29.5927 23.2138 29.8712 24.6778 29.8712C26.1418 29.8712 27.5578 29.5927 28.9018 29.0355C29.7298 28.6918 30.5098 28.2532 31.2238 27.7257C31.2358 27.7198 31.2478 27.7198 31.2598 27.7257C31.976 28.2554 32.756 28.6954 33.5818 29.0355C34.9198 29.5927 36.3418 29.8712 37.8058 29.8712C39.2698 29.8712 40.6858 29.5927 42.0298 29.0355C42.2098 28.9585 42.3898 28.8814 42.5698 28.7985V43.1532ZM44.3458 19.1851C44.3458 22.7294 41.4058 25.6039 37.7878 25.6039C35.3398 25.6039 33.2038 24.2941 32.0758 22.3501C31.9018 22.0537 31.5898 21.87 31.2418 21.87H31.2058C30.8638 21.87 30.5458 22.0537 30.3718 22.3501C29.7961 23.3417 28.965 24.1652 27.9628 24.7367C26.9605 25.3082 25.823 25.6074 24.6658 25.6039C22.2238 25.6039 20.0938 24.3 18.9658 22.3619C18.7858 22.0597 18.4618 21.87 18.1078 21.87C17.7538 21.87 17.4238 22.0597 17.2498 22.3619C16.6708 23.3498 15.8386 24.1695 14.8369 24.7387C13.8352 25.3078 12.6994 25.6062 11.5438 25.6039C7.9258 25.6039 4.98581 22.7294 4.98581 19.1851V13.7799C4.98581 13.7621 4.99781 13.7502 5.01581 13.7502H44.3158C44.3338 13.7502 44.3458 13.7621 44.3458 13.7799V19.1851Z" fill="#0D5C63"/>
</svg>
