<svg width="37" height="48" viewBox="0 0 37 48" fill="none" xmlns="http://www.w3.org/2000/svg">
<path d="M9.72994 33.9949C8.91887 33.1802 9.34167 33.4099 7.38541 32.8839C6.49781 32.6449 5.71754 32.1855 5.01194 31.6352L0.777407 42.0639C0.367673 43.0736 1.13301 44.1705 2.21754 44.1292L7.13527 43.9408L10.5177 47.5296C11.2643 48.3208 12.5747 48.0742 12.9845 47.0646L17.8425 35.1002C16.8307 35.6664 15.7079 35.9983 14.5469 35.9983C12.7269 35.9983 11.017 35.2867 9.72994 33.9949ZM36.3934 42.0639L32.1589 31.6352C31.4533 32.1864 30.673 32.6449 29.7854 32.8839C27.8189 33.4127 28.2501 33.1821 27.4409 33.9949C26.1538 35.2867 24.443 35.9983 22.623 35.9983C21.4619 35.9983 20.3391 35.6655 19.3274 35.1002L24.1854 47.0646C24.5951 48.0742 25.9065 48.3208 26.6522 47.5296L30.0355 43.9408L34.9533 44.1292C36.0378 44.1705 36.8031 43.0727 36.3934 42.0639ZM25.2121 31.8733C26.6382 30.4155 26.8015 30.5411 28.8325 29.9852C30.1289 29.6299 31.1425 28.5939 31.4897 27.2683C32.1878 24.6058 32.0067 24.9274 33.9117 22.9792C34.8609 22.0089 35.2314 20.5942 34.8842 19.2686C34.187 16.608 34.1861 16.9792 34.8842 14.3158C35.2314 12.9902 34.8609 11.5755 33.9117 10.6052C32.0067 8.65706 32.1878 8.97769 31.4897 6.31613C31.1425 4.9905 30.1289 3.95456 28.8325 3.59925C26.2303 2.88581 26.5439 3.07238 24.6371 1.12331C23.6879 0.153002 22.3038 -0.226685 21.0074 0.128627C18.4062 0.841127 18.7693 0.842064 16.1634 0.128627C14.867 -0.226685 13.4829 0.152065 12.5337 1.12331C10.6287 3.07144 10.9423 2.88581 8.33927 3.59925C7.04287 3.95456 6.02927 4.9905 5.68207 6.31613C4.98487 8.97769 5.16501 8.65706 3.26007 10.6052C2.31087 11.5755 1.93941 12.9902 2.28754 14.3158C2.98474 16.9746 2.98567 16.6033 2.28754 19.2677C1.94034 20.5933 2.31087 22.008 3.26007 22.9792C5.16501 24.9274 4.98394 24.6058 5.68207 27.2683C6.02927 28.5939 7.04287 29.6299 8.33927 29.9852C10.4281 30.5571 10.5839 30.4671 11.9587 31.8733C13.1935 33.1361 15.1171 33.3621 16.6011 32.4189C17.1946 32.0405 17.883 31.8396 18.5859 31.8396C19.2888 31.8396 19.9772 32.0405 20.5706 32.4189C22.0537 33.3621 23.9773 33.1361 25.2121 31.8733ZM9.78034 16.4946C9.78034 11.523 13.7227 7.49269 18.5854 7.49269C23.4481 7.49269 27.3905 11.523 27.3905 16.4946C27.3905 21.4661 23.4481 25.4964 18.5854 25.4964C13.7227 25.4964 9.78034 21.4661 9.78034 16.4946Z" fill="#0D5C63"/>
</svg>
